<svg width="12" height="12" viewBox="0 0 12 12" fill="none" xmlns="http://www.w3.org/2000/svg">
<path d="M8.33334 3.66667C9.2616 3.66667 10.1518 4.03542 10.8082 4.6918C11.4646 5.34818 11.8333 6.23841 11.8333 7.16667V11.25H9.50001V7.16667C9.50001 6.85725 9.37709 6.56051 9.1583 6.34171C8.93951 6.12292 8.64276 6.00001 8.33334 6.00001C8.02392 6.00001 7.72718 6.12292 7.50839 6.34171C7.28959 6.56051 7.16668 6.85725 7.16668 7.16667V11.25H4.83334V7.16667C4.83334 6.23841 5.20209 5.34818 5.85847 4.6918C6.51485 4.03542 7.40509 3.66667 8.33334 3.66667Z" fill="#101010"/>
<path d="M0.166672 4.25H2.50001V11.25H0.166672V4.25Z" fill="#101010"/>
<path d="M1.33334 2.50001C1.97767 2.50001 2.50001 1.97767 2.50001 1.33334C2.50001 0.689006 1.97767 0.166672 1.33334 0.166672C0.689006 0.166672 0.166672 0.689006 0.166672 1.33334C0.166672 1.97767 0.689006 2.50001 1.33334 2.50001Z" fill="#101010"/>
</svg>
